<?xml version="1.0" standalone="no"?>
<!DOCTYPE svg PUBLIC "-//W3C//DTD SVG 20010904//EN"
 "http://www.w3.org/TR/2001/REC-SVG-20010904/DTD/svg10.dtd">
<svg version="1.0" xmlns="http://www.w3.org/2000/svg"
 width="478.000000pt" height="478.000000pt" viewBox="0 0 478.000000 478.000000"
 preserveAspectRatio="xMidYMid meet">
<metadata>
Created by potrace 1.14, written by Peter Selinger 2001-2017
</metadata>
<g transform="translate(0.000000,478.000000) scale(0.100000,-0.100000)"
fill="#000000" stroke="none">
<path d="M2847 3919 c-34 -26 -1997 -1989 -1998 -1997 -9 -46 -2 -56 133 -192
77 -77 148 -145 158 -150 22 -12 44 -5 90 29 61 45 81 53 156 58 66 5 79 3
129 -21 31 -16 69 -42 85 -59 94 -100 99 -255 12 -364 -18 -23 -32 -52 -32
-65 0 -18 38 -63 146 -171 129 -130 149 -146 174 -143 43 5 2031 1993 2036
2035 3 25 -15 47 -142 175 -80 80 -153 147 -162 147 -33 3 -46 -3 -84 -36 -75
-64 -195 -76 -293 -30 -49 24 -119 104 -134 156 -28 93 -6 206 54 269 23 25
29 40 26 71 -1 15 -240 263 -283 294 -29 20 -40 19 -71 -6z"/>
</g>
</svg>
